<?xml version="1.0" encoding="UTF-8"?>
<svg xmlns="http://www.w3.org/2000/svg" version="1.1" viewBox="0 0 1080 1080">
  <defs>
    <style>
      .cls-1 {
        fill: #fff;
      }
    </style>
  </defs>
  <!-- Generator: Adobe Illustrator 28.6.0, SVG Export Plug-In . SVG Version: 1.2.0 Build 709)  -->
  <g>
    <g id="Layer_1">
      <g>
        <path class="cls-1" d="M306.5,1045.9c.1-60.6.3-121.2.4-181.8,0-10.9,0-21.7,0-32.6.2-21.7,11.9-33.5,33.7-33.5,85,0,170,0,254.9,0,45.5,0,90.9,0,136.4,0,24.7,0,35.5,10.8,35.5,35.5,0,70.8-.2,141.6-.3,212.4h-460.6Z"/>
        <path class="cls-1" d="M603.7,350.3c21.2,8,41.2,16.3,61.7,23.2,20.1,6.7,37.7-8,34.6-28.2-1.8-11.3-9.3-17.2-19.6-21.1-18.7-7.1-37.1-15.1-55.7-22.6-6.4-2.6-8.7-6-6.5-13.6,4.4-15.2,7.4-30.9,10.9-46.3-1.1-.3-2.2-.7-3.3-1-6.3,17.5-12.9,34.8-18.6,52.5-.7,2.2,2.8,7.3,5.5,8.6,19.6,9.3,39.4,17.9,59.2,26.7,2.7,1.2,5.7,1.7,8.4,2.8,10.8,4.2,16.1,14.4,12.8,24.4-3.3,10.1-13.9,16.2-24.7,12-25.3-10-50.4-20.7-74.9-32.4-7.7-3.7-14-10.9-19.9-17.4-6.8-7.5-8.8-17-6.2-26.8,10.2-37.8,24-73.8,49.4-104.4,11.7-14.1,25.3-26.1,43-31.9,4.2-1.4,10.5-.5,14.3,1.8,26.8,16.5,53.2,16.4,80.1.2,4-2.4,10.8-3.3,15.2-1.7,19.3,6.7,33.7,20.3,45.9,36.1,23.3,29.9,36.4,64.6,46,100.7,3,11.4-.9,22-9.4,29.7-8.5,7.6-17.6,15.4-27.7,20.2-20.5,9.7-41.7,17.8-62.9,25.7-11.6,4.3-22.5-1.2-25.8-11.4-3.5-11,2.2-20.3,14.4-25.3,21.3-8.7,42.3-17.9,63.4-26.9,8-3.4,10.2-8.6,6.7-17.1-6.6-15.7-12.3-31.7-18.4-47.6l-2.7.9c4.4,18.8,8.7,37.6,13.6,58.6-19.5,8-38.8,16-58.2,24-3.6,1.5-7.6,2.3-11.1,4-12.6,5.7-18.2,19.3-13.7,32.1,4.3,12.2,17.4,20,30.1,15.9,21.5-7,42.6-15.3,64.9-23.4.7,2.5,1.8,5.8,2.6,9.1,4.7,19.5,9.4,39,13.6,58.6.6,2.9-.9,8.5-2.9,9.3-16.6,6.7-33.6,12.5-52.4,19.3,0-6.3,0-9.8,0-13.3-.2-21.9-9.5-35.6-27.5-40.4-17.3-4.6-32,2.5-43.6,21.5-9.8-16.5-23.3-26.6-43.1-21.6-26.8,6.8-29.8,28.3-28.7,53.5-18-6.3-34.3-12.2-50.7-17.8-5.2-1.8-5.9-5.2-4.7-10,5.5-22.7,10.9-45.4,16.4-68.6Z"/>
        <path class="cls-1" d="M452.3,228.5v142.7c-13.6-16.1-28.9-22.5-47-18.2-17.9,4.3-28.3,16.7-32.7,34.6-22.2-41-48.3-47.3-80.4-18v-141.1c-1.3-.2-2.6-.4-3.9-.6-3.8,16-8.6,31.9-11.3,48.1-6.5,39.8-7.2,79.9-4.8,120.2.3,5.6.8,11.2.4,16.8-.6,11.9-9.7,21.2-21.2,22.3-12,1.1-24.5-6.7-25.2-18.7-4.4-71.2-6.8-142.5,21.7-210,6.2-14.6,17.6-27.6,28.7-39.4,6.4-6.7,16.6-10.3,25.8-13.6,8.4-3.1,16.4-2.1,24.5,4.7,26.4,21.8,63.6,21.9,90.1,0,8.5-7,16.4-7.1,25.5-4.6,19.9,5.4,33.8,18.6,44.5,35.4,17.8,27.9,24.5,59.4,28.7,91.5,5.6,42.9,5.5,86,2.7,129.2-1.1,16.7-10.7,26.4-25,25.6-14.4-.8-23.2-12.4-22.3-29.3,2.6-48.1,3-96.1-6.7-143.6-2.3-11.5-6.1-22.7-9.2-34.1-1,0-2,.1-2.9.2Z"/>
        <path class="cls-1" d="M952.9,384.6c0,3,0,6.6,0,10.1,0,49.4,0,98.8,0,148.2,0,23.9-11.9,35.9-35.8,35.9-40.5,0-81,0-121.6,0-2.9,0-5.8-.3-9.3-.6v-61.3h105c0-4.9,0-8.8,0-12.6,0-62.3-.1-124.5,0-186.8,0-33.4,20.5-61.8,50.7-69.9,27.4-7.4,51.9-1,70.9,20.4,19.3,21.7,23.1,47.2,11.6,73.6-11.5,26.7-33.2,39.9-62,41.6-2.6.2-5.2.1-7.9.2-.3,0-.6.3-1.8.9Z"/>
        <path class="cls-1" d="M126.5,384.5c-9.7-1.4-18.6-1.7-27-4-34-9.3-54-40.3-50-76.1,3.5-31.3,31.4-57.4,63.2-59.2,35.3-2,65.2,19.8,72.8,53.6,1.7,7.6,2.5,15.6,2.6,23.4.2,60.9.1,121.8.1,182.6,0,3.5,0,7.1,0,11.7h91.8c0,20,.1,38.9-.3,57.9,0,1.5-3.8,4.3-5.9,4.3-39.2.2-78.3.6-117.5-.1-18.3-.4-29.7-13.8-29.8-32.6-.1-50.3,0-100.7,0-151,0-3.6,0-7.1,0-10.3Z"/>
        <path class="cls-1" d="M292,485.6c0-30.6-.3-61.2.1-91.8.2-16.5,10.3-29.1,25.4-33.9,14.7-4.6,31.1-.3,39.4,12.6,4.6,7.1,7.8,16.4,7.9,24.7.7,59.9.5,119.8.3,179.7-.1,22.9-16,38.7-37.4,38.4-20.9-.3-35.6-16-35.8-38.9-.2-30.3,0-60.5,0-90.8,0,0,0,0,0,0Z"/>
        <path class="cls-1" d="M379.1,487c0-31.3-.3-62.5.1-93.8.2-16.3,10.6-28.8,25.9-33.4,14.7-4.4,31,.2,39.3,13.2,4.4,6.8,7.5,15.8,7.6,23.8.6,59.9.5,119.8.3,179.7,0,23-15.6,38.9-37,38.8-21.3-.1-36-16-36.2-39.5-.2-29.6,0-59.2,0-88.8,0,0,0,0,.1,0Z"/>
        <path class="cls-1" d="M370.7,167.3c-36.9-.9-66.3-31.3-65.4-67.6.9-37.3,31.3-66.4,68.5-65.6,36.4.8,65.8,31.7,64.9,68.2-.9,36.6-31.5,65.8-68.1,65Z"/>
        <path class="cls-1" d="M537.7,746.6c-11.9,0-23.8.5-35.6-.3-4.7-.3-10.4-2.5-13.6-5.8-24.8-25.7-23.7-67.4,1.9-92.6,26.3-25.8,68.3-25.5,94.2.8,25.2,25.4,25.6,67.5.5,92.7-2.8,2.9-7.9,4.7-12,5-11.8.7-23.7.2-35.6.2Z"/>
        <path class="cls-1" d="M650.5,98c.3-34.8,29-63.2,63.8-63.2,35.2,0,64.2,29.3,63.7,64.3-.5,35-29,63.3-63.8,63.3-35.1,0-64-29.2-63.7-64.3Z"/>
        <path class="cls-1" d="M650.2,505.8c0-24.7,0-49.4,0-74.1,0-19.4,11.9-32.4,29.4-32.4,17.5,0,29.7,13,29.8,32.3.1,49.4.1,98.8,0,148.1,0,19.1-12.6,32.2-30.1,32-17-.2-29-13.2-29.1-31.8-.1-24.7,0-49.4,0-74.1Z"/>
        <path class="cls-1" d="M719.4,505.2c0-24.7,0-49.4,0-74.1,0-18.7,12-31.6,29.1-31.8,17.5-.2,30.1,12.9,30.1,32,.1,49.4.1,98.8,0,148.1,0,19.3-12.3,32.3-29.8,32.3-17.4,0-29.3-13.1-29.4-32.5,0-24.7,0-49.4,0-74.1Z"/>
        <path class="cls-1" d="M642.3,578.3h-177.3v-60.7h177.3v60.7Z"/>
        <path class="cls-1" d="M642.4,496.5v10.5h-177.6c-.2-3.2-.4-6.3-.7-10.5,17.7,0,34.8,0,51.8,0,14.4,0,17.9-3.6,17.9-18.2,0-16.1.5-32.3,0-48.4-1.8-49.1-3.8-98.2-6-147.3-.3-7.2-1.8-14.3-2.8-22.1h41.8c-2.4,8.1-4.5,15.9-7,23.6-6,18.5-.3,33.6,13.1,46.5,2.6,2.5,5.1,5.6,8.3,6.9,13.3,5.7,14.5,14.6,10.2,27.3-4.8,14.3-7.3,29.3-11,44.9-6.7,0-13.2-.1-19.7,0-10.6.3-15,4.5-15,15.1-.1,18.8-.1,37.5,0,56.3,0,11,4.4,15.2,15.8,15.2,26.6,0,53.3,0,80.9,0Z"/>
        <path class="cls-1" d="M881.8,507.2h-95.5v-10.7c22,0,43.7,0,65.3,0,15.2,0,18.4-3.2,18.5-18.5,0-15.1,0-30.3,0-45.4,0-20.6-.7-21.4-22-23.6-4.5-19.1-9.3-38.5-13.5-58-.4-2.1,2.5-5.4,4.6-7.3,6.4-5.7,13.7-10.3,19.6-16.4,11.7-12,15.5-26.4,10.1-42.7-2.5-7.7-4.6-15.6-7.5-25.2,13.8.7,26.2,1.3,41.8,2.1-21.4,25.6-21.8,53-21.5,80.9.5,51,.1,102.1.1,153.1s0,7.2,0,11.7Z"/>
        <path class="cls-1" d="M649.6,788.5h-224.5c14.1-19.1,30.4-32.3,53.5-32.8,39.1-.8,78.3-.7,117.5,0,23.1.4,39.3,13.8,53.6,32.8Z"/>
        <path class="cls-1" d="M219.4,259.1c-8,50.6-6.3,99.2-7.2,147.8-.5,23.8-1.9,48.1-2.8,72.2-.5,13.9,3.4,17.3,17.5,17.3,17.1,0,34.2,0,51.9,0,.7,4.7,4.6,10.8-4,11-25.3.5-50.6.2-77.2.2v-11.3c0-56,0-111.9,0-167.9,0-28.8-3.3-40.2-20.1-66.8,14.5-.9,27.5-1.7,41.9-2.6Z"/>
        <path class="cls-1" d="M191.5,588.2v13.9h-36.6v-13.9h36.6Z"/>
        <path class="cls-1" d="M924.2,602.3h-36.1v-14.4h36.1v14.4Z"/>
        <path class="cls-1" d="M521.8,602.1v-14.2h35.9v14.2h-35.9Z"/>
      </g>
    </g>
  </g>
</svg>