<?xml version="1.0" encoding="UTF-8"?>
<svg id="Layer_1" xmlns="http://www.w3.org/2000/svg" viewBox="0 0 1080 1080">
  <defs>
    <style>
      .cls-1 {
        fill: #fff;
      }
    </style>
  </defs>
  <path class="cls-1" d="M987.27,498.22c-3.65,14.36-7.99,28.27-17.91,39.96-16.46,19.37-37.37,29.65-62.48,29.73-98.03.34-196.07.13-294.11.11-.54,0-1.08-.25-3.05-.72,2.43-2.63,4.37-4.86,6.45-6.94,24.66-24.72,49.59-49.16,73.95-74.17,47.3-48.56,41.17-122.7-13.03-161.32-38.7-27.58-93.78-24.52-129.15,7.29-6.47,5.82-12.62,11.99-19.75,18.79-7.31-10.96-14.44-21.48-21.37-32.12-12.1-18.56-24.09-37.16-43.77-48.98-1.45-.87-3.01-3.18-2.93-4.74,1.01-20.25-.47-41.15,4.16-60.58,8.25-34.65,39.29-57.13,75.46-57.22,121.89-.33,243.78-.34,365.67,0,41.45.12,72.99,27.9,80.66,69.24.15.79.79,1.49,1.2,2.24v279.44Z"/>
  <path class="cls-1" d="M374.39,987.23c-15.12-6.97-20.45-18.94-19.34-35.2,1.65-24.02.21-48.47,4.1-72.08,5.2-31.53,23.45-56.31,48.96-75.65,54.64,68.97,153.79,68.98,208.47-.04,31.39,24.25,49.56,55.86,52.26,95.44,1.4,20.57.63,41.29.52,61.94-.07,13.01-8.67,20.08-19.09,25.59h-275.88Z"/>
  <path class="cls-1" d="M716.63,987.23c1.23-4.16,3.3-8.27,3.56-12.49,2.41-40.03,5.28-80.13-7.08-119.28-1.71-5.41-3.75-10.71-6.12-17.42,67.22,32.9,124.17,20.03,173.65-33.48,31.05,24,49.18,55.64,51.87,95.22,1.4,20.55.63,41.26.51,61.89-.07,13-8.68,20.05-19.08,25.56h-197.31Z"/>
  <path class="cls-1" d="M112.48,987.23c-15.11-6.97-20.45-18.93-19.34-35.18,1.64-24.01.22-48.45,4.09-72.05,5.17-31.55,23.45-56.33,49.21-75.9,20.82,25.93,46.68,43.04,79.13,49.53,32.05,6.41,62.05.07,92.38-16.46-2.65,7.54-5.33,12.75-6.26,18.26-3.29,19.39-7.77,38.82-8.42,58.35-.77,23.07,1.94,46.27,3.23,69.4.08,1.37,1.01,2.69,1.54,4.04H112.48Z"/>
  <path class="cls-1" d="M407.57,456.19c0,18.87,0,37.74,0,56.62,0,42.2.13,84.4-.18,126.6-.04,4.88-1.49,10.46-4.15,14.49-11.18,16.99-17.42,35.74-21.85,55.78-6.3-37.29-23.51-67.85-54.02-90.08-30.45-22.2-64.63-29.38-102.72-22.87-.16-3.58-.41-6.59-.41-9.61-.03-49.47.11-98.95-.09-148.42-.08-20.21-17.56-32.72-35.55-25.96-10.77,4.04-16.72,13.38-16.74,26.95-.07,47.15-.03,94.29-.03,141.44,0,1.75-.2,3.52.03,5.23,2.87,21.78-.83,40.31-20.21,54.7-8.11,6.02-12.59,17.16-18.07,26.37-2.36,3.97-4.51,5-8.95,4.14-18.4-3.56-31.2-19.25-31.32-39.65-.18-32.01-.05-64.03-.05-96.04,0-40.45-.06-80.91.01-121.36.12-62.87,45.61-108.31,108.56-108.39,65.47-.08,130.93.17,196.4-.11,25.31-.11,44.35,9.01,58.19,31.18,20.14,32.29,41.98,63.53,63.56,95.93,2.44-2.25,4.54-4.06,6.5-6.01,17.5-17.48,34.8-35.17,52.52-52.42,17.11-16.65,40.27-20.68,60.28-11.17,20.1,9.56,31.72,29.49,29.98,51.69-1.04,13.33-6.77,24.58-16.1,33.95-33.89,34.01-67.64,68.17-101.89,101.81-26.36,25.9-62.97,21.98-83.83-8.62-17.85-26.19-35.26-52.69-52.87-79.04-1.74-2.6-3.57-5.14-5.36-7.71-.55.19-1.1.39-1.65.58Z"/>
  <path class="cls-1" d="M329.32,253.64c-42.04.36-78.08-35.99-78.84-79.5-.75-43.09,35.5-80.67,78.18-81.03,42.04-.36,78.08,35.99,78.84,79.5.75,43.09-35.5,80.67-78.18,81.03Z"/>
  <path class="cls-1" d="M171.91,725.65c-.38-42.57,34.89-78.3,77.9-78.92,42.79-.61,79.17,35.52,79.12,78.57-.05,42.75-35.55,78.32-78.34,78.48-42.66.16-78.29-35.22-78.68-78.14Z"/>
  <path class="cls-1" d="M512.73,803.79c-42.57.38-78.3-34.89-78.91-77.91-.61-42.8,35.49-79.17,78.55-79.14,42.72.03,78.29,35.54,78.47,78.35.18,42.66-35.21,78.32-78.11,78.71Z"/>
  <path class="cls-1" d="M774.66,803.79c-42.56.4-78.29-34.87-78.92-77.89-.63-42.79,35.47-79.17,78.53-79.16,42.71.01,78.29,35.52,78.49,78.33.2,42.65-35.19,78.32-78.09,78.72Z"/>
</svg>