<?xml version="1.0" encoding="UTF-8"?>
<svg xmlns="http://www.w3.org/2000/svg" version="1.1" viewBox="0 0 512 512">
  <defs>
    <style>
      .cls-1 {
        fill: #f93;
      }
    </style>
  </defs>
  <!-- Generator: Adobe Illustrator 28.7.1, SVG Export Plug-In . SVG Version: 1.2.0 Build 142)  -->
  <g>
    <g id="Layer_1">
      <g id="Layer_1-2" data-name="Layer_1">
        <path class="cls-1" d="M439.5,32.2c6.4.5,18,1.2,29.7,2.1,6,.5,8.3,2.9,9.1,9.3,3.4,26.5,3.2,53-1.2,79.3-15,88.8-61.3,158.9-129.5,215.7-23.8,19.8-49.3,37.1-76.3,52.3-7.5,4.2-9.7,4-15.7-2-44.2-44.1-88.3-88.3-132.5-132.5-5-5-5.4-7.5-2.1-13.7,17.6-32.4,38.8-62.4,63.3-89.9,44.1-49.4,96.5-87.1,160.3-107.2,29.2-9.2,59.2-13.3,95-13.5h0ZM264,183.9c-.1,36,28.5,64.4,65,64.6,34.7.2,63.3-28.7,63.5-64,.1-35.4-28-64.3-62.9-64.5-36.6-.2-65.5,27.9-65.6,63.9h0Z"/>
        <path class="cls-1" d="M108,362.6c15.2,1.3,28.3,9.5,36.7,25,8,14.6,7.2,29.4-2.6,42.4-6.4,8.5-14.3,16.5-22.9,22.7-22.3,16.1-47.6,25.3-75,28.1-9.6,1-13.5-2.3-12.4-11.8,3.9-35.5,16.7-67.2,42.6-92.6,8.6-8.4,18.9-13.7,33.6-13.8h0Z"/>
        <path class="cls-1" d="M253.2,407.4c9.8,4.4,18.2,1.8,26.6-3,38.8-22,74.6-48.2,106.5-79.5.7-.7,1.5-1.3,3.5-3.1-.7,8-.9,14.7-2,21.3-11.2,67.6-52.6,107.5-116.4,126.7-4.9,1.5-10,2.4-15.1,3.3-6.8,1.1-10.9-2.9-10-9.8,1.8-14.8,3.6-29.5,5.5-44.2.5-3.8.9-7.5,1.5-11.7h0Z"/>
        <path class="cls-1" d="M188.8,122.9c-18.1,19-34,38.9-48.6,59.8-12.1,17.2-22.8,35.3-33.8,53.1-4.5,7.2-4.9,15.1-1.4,23.5-11.2,1.4-22.1,2.8-33,4.1-7.6.9-15.2,1.8-22.8,2.7-6.9.9-11.4-3.2-10-9.9,12.7-62.1,46.6-106.3,107.8-127.1,7-2.4,14.6-3.6,22-4.7,6.6-1,13.2-1.1,19.9-1.6h-.1Z"/>
        <path class="cls-1" d="M218.8,376c-7.8,3.8-15.3,9.7-24.9,7.1-4.5-1.2-9.3-3.3-12.6-6.5-15.4-14.8-30.5-30-45.4-45.2-7.4-7.5-9-16.5-5-26.3,1.6-4,3.7-7.7,5.4-11.2,27.6,27.5,54.9,54.7,82.5,82.2h0Z"/>
        <path class="cls-1" d="M376.2,184.4c0,27.4-21,48.3-48.2,48.2-27.1-.2-47.6-20.9-47.7-48.2,0-27.5,20.6-48.3,48-48.3s48,20.7,48,48.3h0Z"/>
      </g>
    </g>
  </g>
</svg>