<?xml version="1.0" encoding="UTF-8"?>
<svg id="Layer_1" xmlns="http://www.w3.org/2000/svg" viewBox="0 0 1038 852.59">
  <defs>
    <style>
      .cls-1 {
        fill: #fff;
      }
    </style>
  </defs>
  <path class="cls-1" d="M0,839.8c3.83-21.9,7.89-43.75,11.43-65.69,9.74-60.31,19.27-120.66,28.85-180.99.52-3.27.72-6.59,1.14-10.52-3.41-.34-6.41-.35-9.26-.99-6.84-1.54-10.52-5.84-10.04-13.05.44-6.73,4.2-10.88,10.88-11.03,15.53-.33,31.12-.81,46.59.18,5.59.36,10.95,4.69,16.36,7.32,9.91,4.83,19.78,9.74,29.3,16.62h-60.55c-8.71,54.65-17.24,108.24-25.91,162.63h133.54c-16.69-21.45-12.9-43.4-2.28-64.42,10.56-20.9,7.79-41.72,3.63-63.04-.83-4.24-1.21-8.57-2.05-14.69,21.94,10.76,42.49,20.63,62.78,31.03,2.4,1.23,4.09,5.14,4.81,8.12,6.09,25.25,12.03,50.54,17.69,75.9,3.37,15.11-5.76,25.17-15.92,33.74-5.76,4.86-13.37,7.53-21.42,11.89,4.12,26.31,8.43,53.86,12.94,82.67-7.02,1.16-13.8,2.29-21.83,3.62-3.36-20.65-6.75-40.5-9.78-60.41-2.85-18.69-2.69-18.72-21.77-18.72-43.92,0-87.84,0-131.76,0h-12.52c-4.31,26.56-8.46,52.13-12.78,78.77-7.62-.99-14.83-1.93-22.05-2.86,0-2.03,0-4.06,0-6.08Z"/>
  <path class="cls-1" d="M1038,847.91c-6.99.75-13.97,1.51-22.03,2.37-4.27-26.22-8.48-52.08-12.74-78.2-2.76-.27-5.07-.68-7.38-.68-48.99-.04-97.97.09-146.96-.17-6.65-.03-9.31,1.65-10.24,8.66-2.65,20.07-6.24,40.01-9.5,60-.53,3.25-1.27,6.46-2.08,10.53-7.21-1.08-13.74-2.05-21.67-3.23,13.93-87.68,27.77-174.82,41.61-261.97-.69-.54-1.37-1.07-2.06-1.61-12.41,13.55-33.58,18.36-37.33,43.72-3.94-26.71-7.42-50.29-11.06-74.94h79.02c18.11,13.14,38.57,4.11,57.85,5.69,20.81,1.7,41.86.33,62.8.44,4.01.02,8.97-.6,11.78,1.43,3.55,2.56,7.43,7.62,7.3,11.47-.13,3.83-4.5,8.19-8.05,11.01-2.26,1.79-6.42,1.2-10.95,1.85,3.25,21.12,6.37,42.03,9.69,62.89,9.89,61.99,19.85,123.97,29.83,185.95.47,2.94,1.42,5.81,2.14,8.72v6.08ZM999.19,746.26c-8.25-52.28-16.39-103.58-24.38-154.91-.85-5.47-2.73-8.13-8.98-8.06-30.05.32-60.11.13-90.17.21-1.89,0-3.78.76-5.85,1.2-8.56,53.92-17.06,107.43-25.66,161.55h155.04Z"/>
  <path class="cls-1" d="M41.89,416.12c-.16-52.78,11.04-103.41,29.41-152.39,13.07-34.86,37.33-58.17,75.81-63.65,15.41-2.19,29.37,2.13,42.73,9.35,36.81,19.89,73.53,39.95,110.58,59.38,4.77,2.5,11.71,3.34,16.95,2.07,36.38-8.8,72.58-18.37,108.84-27.66,19.72-5.06,36.82,4,41.46,21.91,4.47,17.25-5.97,33.98-24.98,38.94-42.74,11.16-85.46,22.47-128.47,32.56-8.11,1.9-18.52.65-26.07-2.94-27.04-12.87-53.67-26.75-79.63-41.68-6.73-3.87-10.68-12.77-15.57-19.61-7.45-10.41-17-17.42-29.95-18.61-16.99-1.56-30.64,4.68-39.41,19.47-8.98,15.13-8.05,30.44,2.14,44.72,18.64,26.11,37.35,52.18,56.58,77.86,5.28,7.04,6.58,13.88,6.11,22.41-1.14,20.88-1.08,41.83-1.75,62.74-.21,6.69,2.68,10.05,8.69,12.94,36.48,17.54,72.54,35.97,109.14,53.23,18.68,8.81,29.27,22.56,33.74,42.5,14.32,63.86,29.2,127.59,43.77,191.4,6.62,29.02-9.09,54.91-36.92,61.21-27.13,6.14-52.48-10.4-59.1-38.9-12.9-55.53-25.77-111.07-38.25-166.7-1.44-6.43-4.51-9.7-10.12-12.43-42.8-20.74-84.92-42.98-128.34-62.33-41.65-18.56-62.65-49.22-64.37-94.2-.66-17.21-1.99-34.38-3.02-51.58Z"/>
  <path class="cls-1" d="M680.27,495.53c13.84.23,23.9-6.39,34.12-14.18,20.14-15.36,44.65-18.81,68.88-20.48,22.48-1.55,45.18-1.13,67.73-.28,29.75,1.12,44.84-9.79,50.01-39.37,8.6-49.2,16.83-98.46,24.87-147.76,3.49-21.37-11.51-42.28-32.11-45.9-23.48-4.12-44.11,10.23-48.24,33.82-3.7,21.09-7.12,42.23-11.75,63.38-4.52-30.11-17.55-58.95-10.87-90.48,8.5-40.11,38.66-58.24,77.83-45.98,29.53,9.24,49,29.78,59.82,57.78,25.1,64.93,35.43,132.17,27.46,201.69-1.65,14.36-2.82,29.19-7.44,42.69-8.5,24.85-23.71,44.69-50.85,51.85-4.49,1.18-9.36,1.23-14.05,1.24-39.19.09-78.38.05-117.56.05-3.64,0-7.28,0-12,0,3.29,22.43,6.41,43.71,9.53,64.99,5.29,36.07,10.95,72.09,15.75,108.22,3.65,27.51-14.57,50.71-42,54.95-25.88,4-51-13.71-55.14-40.71-11.88-77.4-22.99-154.92-34.38-232.4-.09-.64.16-1.33.4-3.13Z"/>
  <path class="cls-1" d="M803.05,0c48.78.3,87.95,39.67,88.01,88.44.06,49.49-40.17,89.13-89.92,88.59-48.64-.53-87.68-40.23-87.5-88.98C713.83,39.06,753.79-.3,803.05,0Z"/>
  <path class="cls-1" d="M321,105.59c-1,49.79-41.49,88.51-91.23,87.26-48.75-1.23-86.86-41.94-85.84-91.68.98-47.57,42.14-86.9,89.76-85.77,49.63,1.18,88.3,41.13,87.31,90.2Z"/>
  <path class="cls-1" d="M805.3,386.75c3.37,0,6.75.03,10.12,0,18.58-.18,18.53-.19,21.62-19.05,5.57-33.96,11.25-67.9,16.81-101.85,2.25-13.72,8.82-23.89,22.57-28.43,11.76-3.88,22.08-.92,30.89,7.17,9.69,8.9,10.96,20.36,8.87,32.67-6.37,37.59-12.67,75.18-18.99,112.78-1.73,10.31-3.55,20.61-5.19,30.94-3.46,21.77-17.03,31.94-38.85,30.38-38.87-2.77-77.8-3.2-115.36,8.99-11.9,3.86-23.3,10.51-33.6,17.78-15.67,11.05-33.92,10.68-45.48-2.83-11.61-13.57-10.06-32.53,4.19-45.21,25.66-22.84,57.01-32.84,90.04-38.17,17.28-2.79,34.83-3.94,52.26-5.84.04.23.07.46.11.69Z"/>
  <path class="cls-1" d="M331.25,445.08c-27.7,0-55.4-.18-83.09.08-13.33.12-23.17-5.29-30.88-16.02-27.39-38.12-55.08-76.04-82.55-114.11-11.93-16.53-9.66-35.94,5.16-46.64,14.96-10.8,33.71-6.98,45.87,9.67,22.31,30.55,44.84,60.95,66.42,92.01,6.51,9.37,13.54,12.81,24.8,12.88,45.6.28,91.2,1.54,136.8,2.44,21.53.42,35.31,13.14,34.88,32.22-.42,18.58-14.55,30.86-35.35,30.82-27.36-.04-54.72-.01-82.07-.01v-3.33Z"/>
  <path class="cls-1" d="M195.75,453.19c14.21-2.01,27.39-4.31,41.96-.51,13.69,3.57,28.82,1.67,43.31,2.1,12.49.37,25.05,0,37.45,1.25,4.55.46,10.04,3.7,12.81,7.39,7.9,10.51,10.15,23.28,6.92,35.7-4.12,15.88-10.28,31.23-15.61,46.98-40.74-19.98-80.44-39.31-119.9-59.09-3.12-1.56-6.18-6.07-6.64-9.56-1-7.59-.31-15.41-.31-24.25Z"/>
  <path class="cls-1" d="M783.17,778.78c-3.05,14.84-4.56,28.99-8.97,42.16-7.68,22.93-32.68,35.72-56.21,30.48-23.91-5.33-41.71-28.13-38.33-52.24,4.91-35.03,11.56-69.81,17.5-104.69.16-.93.75-1.79,1.64-3.81,2.2,14.05,4.06,27.01,6.27,39.9,6.17,35.87,36.08,56.23,71.72,48.99,1.54-.31,3.13-.39,6.37-.79Z"/>
</svg>