<?xml version="1.0" encoding="UTF-8"?>
<svg xmlns="http://www.w3.org/2000/svg" version="1.1" viewBox="0 0 512 512">
  <defs>
    <style>
      .cls-1 {
        fill: #f93;
      }
    </style>
  </defs>
  <!-- Generator: Adobe Illustrator 28.7.1, SVG Export Plug-In . SVG Version: 1.2.0 Build 142)  -->
  <g>
    <g id="Layer_1">
      <g id="Layer_1-2" data-name="Layer_1">
        <path class="cls-1" d="M182.5,21.6v23c84-17.3,166.7-9.7,249.6,8-6.8,8.5-13.2,16.6-19.7,24.7-12.8,16-25.6,32.1-38.6,48.1-2.1,2.6-2.3,4.3-.6,7.2,19.5,33.9,38.9,67.9,58.3,101.9.9,1.5,1.7,3.1,3.2,5.9-83.9-22.4-167.4-26.5-252.1-9.1v106.2c0,3.2.9,4.8,3.9,6.3,13.5,6.5,21,17.4,22.6,32.3v2.2c0,.3-.2.5-.4,1.1h-78.9c0-10.6,3.6-19.7,10.9-27s7.8-6.2,12.1-8.6c2.6-1.4,3.5-2.7,3.5-5.6-.1-37.1,0-74.3,0-111.4V21.6h26.4-.2Z"/>
        <path class="cls-1" d="M262.3,472.4H77.3c-6.3-38.9,20.3-65.2,49.9-65.9,28.1-.7,56.3-.5,84.5,0,27.6.4,49.5,23.4,50.6,52,.2,4.5,0,9,0,13.9h0Z"/>
      </g>
    </g>
  </g>
</svg>