<svg id="Layer_1" data-name="Layer 1" xmlns="http://www.w3.org/2000/svg" xmlns:xlink="http://www.w3.org/1999/xlink" viewBox="0 0 131.68 100"><defs><clipPath id="clip-path"><rect x="-15.89" y="-7.67" width="160.78" height="113.69" fill="none"/></clipPath><clipPath id="clip-path-2"><polygon points="52.61 74.36 52.61 68.09 31.19 83.46 39.47 58.63 18.19 43.02 44.44 43.02 52.54 18.07 60.64 43.14 95.17 43.14 102.02 38.17 64.3 38.05 52.61 1.75 40.65 38.29 2.58 38.17 33.44 60.4 21.73 96.59 52.61 74.36" fill="none"/></clipPath><radialGradient id="radial-gradient" cx="-328.9" cy="348" r="0.19" gradientTransform="matrix(254.39, 0, 0, -254.39, 83722.23, 88577.94)" gradientUnits="userSpaceOnUse"><stop offset="0" stop-color="#fcf8cd"/><stop offset="0.11" stop-color="#f8f0bc"/><stop offset="0.33" stop-color="#efda8f"/><stop offset="0.37" stop-color="#edd586"/><stop offset="0.69" stop-color="#e9ba1f"/><stop offset="1" stop-color="#c1912e"/></radialGradient><radialGradient id="radial-gradient-2" cx="-328.93" cy="347.94" r="0.19" gradientTransform="matrix(183.07, -183.07, -183.07, -183.07, 123965.05, 3528.17)" gradientUnits="userSpaceOnUse"><stop offset="0" stop-color="#edd586"/><stop offset="0.46" stop-color="#fcf8cd"/><stop offset="0.49" stop-color="#faf2bc"/><stop offset="0.55" stop-color="#f5e28f"/><stop offset="0.64" stop-color="#edc847"/><stop offset="0.69" stop-color="#e9ba1f"/><stop offset="1" stop-color="#c1912e"/></radialGradient><clipPath id="clip-path-3"><path d="M43.41,60.83h-.68V45.16h.68Zm1.36,0h-.68V45.16h.68Zm1.36,0h-.68V45.16h.68Zm1.36-3.41h7.25v.68H47.49v.68h7.25v.68H47.49v.69h7.25v.68H46.81V45.16h7.93v.69H47.49v.68h7.25v.68H47.49v.68h7.25v.68H47.49v2.72h3.72V52H47.49v.69h3.72v.68H47.49V54h3.72v.68H47.49Z" fill="none"/></clipPath><linearGradient id="linear-gradient" x1="-327.97" y1="348.28" x2="-327.78" y2="348.28" gradientTransform="matrix(62.89, 0, 0, -62.89, 20668.86, 21956.25)" gradientUnits="userSpaceOnUse"><stop offset="0" stop-color="#b37b2b"/><stop offset="0.05" stop-color="#b8822e"/><stop offset="0.13" stop-color="#c69537"/><stop offset="0.22" stop-color="#dcb444"/><stop offset="0.32" stop-color="#fbdf58"/><stop offset="0.33" stop-color="#ffe45a"/><stop offset="0.52" stop-color="#fdeb86"/><stop offset="0.66" stop-color="#ffe45a"/><stop offset="1" stop-color="#b37b2b"/></linearGradient><clipPath id="clip-path-4"><path d="M56.58,60.83h-.73L62,45.16h.74L69,60.83h-.73L62.41,46.08ZM62.49,47.7l.39.87L58,60.83h-.73Zm.76,1.8.36.93-4.09,10.4h-.74ZM64,51.37l.36,1L61,60.83h-.73ZM62.12,59l.26-.68h4.46l.29.68Zm.53-1.36.26-.68h3.4l.29.68Zm.52-1.36.28-.68h2.33l.27.68Zm1.06-11.07,6.2,15.67h-.74L63.51,45.16Zm1.47,0,6.19,15.67h-.72L65,45.16Zm7.66,15.67h-.74L66.44,45.16h.73Z" fill="none"/></clipPath><linearGradient id="linear-gradient-2" x1="-328.9" y1="348.19" x2="-328.71" y2="348.19" gradientTransform="matrix(91.71, 0, 0, -91.71, 30219.74, 31986.04)" xlink:href="#linear-gradient"/><clipPath id="clip-path-5"><path d="M86.07,60.83h.68V52.65h-.68Zm1.36,0h.68V52.65h-.68Zm1.37,0h.68V52.65H88.8ZM78.42,45.16a8.38,8.38,0,0,0-4.53,4.53A8.14,8.14,0,0,0,73.21,53a8.75,8.75,0,0,0,.69,3.48,8.16,8.16,0,0,0,1.86,2.71,8.77,8.77,0,0,0,2.7,1.7,8.52,8.52,0,0,0,3.2.62,10.53,10.53,0,0,0,3.73-.68V52.65h-.68v3.44a6.71,6.71,0,0,1-2.92.65,4.52,4.52,0,0,1-1.44-.22,4.08,4.08,0,0,1-1.21-.66,3.07,3.07,0,0,1-.85-1.18A4.2,4.2,0,0,1,78,53a3.74,3.74,0,0,1,3.74-3.75,3.69,3.69,0,0,1,1.77.44,3.58,3.58,0,0,1,1.33,1.2l.56-.37a4.4,4.4,0,0,0-1.57-1.43,4.29,4.29,0,0,0-2.09-.52,4.43,4.43,0,0,0-3.13,1.3A4.55,4.55,0,0,0,77.29,53a4.88,4.88,0,0,0,.38,2,3.65,3.65,0,0,0,1,1.39,4.6,4.6,0,0,0,1.43.81,5.27,5.27,0,0,0,1.7.27,7.19,7.19,0,0,0,2.9-.59v.65a7.16,7.16,0,0,1-3,.63,5.74,5.74,0,0,1-1.55-.21,5,5,0,0,1-1.39-.64,4.63,4.63,0,0,1-1.13-1,4.3,4.3,0,0,1-.76-1.44A5.74,5.74,0,0,1,76.61,53a5,5,0,0,1,.69-2.57,5.18,5.18,0,0,1,1.86-1.86,5.15,5.15,0,0,1,5-.08,5.13,5.13,0,0,1,1.81,1.62l.57-.37a5.73,5.73,0,0,0-2.06-1.85,5.58,5.58,0,0,0-2.73-.68A5.78,5.78,0,0,0,75.93,53a6,6,0,0,0,.49,2.45,5,5,0,0,0,1.3,1.84,5.82,5.82,0,0,0,1.86,1.11,6.31,6.31,0,0,0,2.21.39,8,8,0,0,0,2.92-.54v.68a8.33,8.33,0,0,1-3,.53,6.9,6.9,0,0,1-2-.28A6.26,6.26,0,0,1,78,58.34,6.42,6.42,0,0,1,76.55,57a6,6,0,0,1-1-1.81A7,7,0,0,1,75.25,53a6.38,6.38,0,0,1,.51-2.52A6.28,6.28,0,0,1,79.21,47a6.47,6.47,0,0,1,5.56.25,6.43,6.43,0,0,1,2.3,2.06l.57-.36a7.12,7.12,0,0,0-2.54-2.3A7.15,7.15,0,0,0,74.57,53,7.71,7.71,0,0,0,75,55.42a6.69,6.69,0,0,0,1.06,2,7.12,7.12,0,0,0,1.58,1.47,6.87,6.87,0,0,0,2,.94,7.69,7.69,0,0,0,2.19.32,9.14,9.14,0,0,0,3-.48v.66a9.59,9.59,0,0,1-3.07.5,7.59,7.59,0,0,1-2.94-.58,7.82,7.82,0,0,1-2.47-1.57,7.29,7.29,0,0,1-1.7-2.49A7.91,7.91,0,0,1,73.89,53a7.69,7.69,0,0,1,.62-3,7.82,7.82,0,0,1,1.67-2.51,7.94,7.94,0,0,1,2.5-1.67,7.72,7.72,0,0,1,3-.62,7.64,7.64,0,0,1,3.68.92,7.81,7.81,0,0,1,2.79,2.5l.57-.37a8.35,8.35,0,0,0-3-2.72,8.41,8.41,0,0,0-7.31-.33" fill="none"/></clipPath><linearGradient id="linear-gradient-3" x1="-329.76" y1="348.2" x2="-329.56" y2="348.2" gradientTransform="matrix(85.17, 0, 0, -85.17, 28160.09, 29711.28)" xlink:href="#linear-gradient"/><clipPath id="clip-path-6"><path d="M95.24,60.83h.68V55.19l-.68-1.29Zm7.18-5.72v5.72h.68v-7Zm-8.55,5.72h.68V52.6l-.68-1.29Zm9.92-8.33v8.33h.68V51.22ZM92.51,60.83h.68V50l-.68-1.3Zm12.64-10.9v10.9h.68V48.64Zm-14-4.77V60.83h.68V46.46l5.42,10.28H98l-6.1-11.58Zm1.54,0,6.09,11.58h.78L93.47,45.16Zm10.64,0L99.4,52.59l.39.72,4.32-8.15Zm1.55,0-4.69,8.92.39.71,5.07-9.63Zm1.53,0L100.71,56,95,45.16h-.77l6.08,11.58h.78l5.42-10.28V60.83h.68V45.16Z" fill="none"/></clipPath><linearGradient id="linear-gradient-4" x1="-330.67" y1="348.21" x2="-330.48" y2="348.21" gradientTransform="matrix(83.99, 0, 0, -83.99, 27863.01, 29297.68)" xlink:href="#linear-gradient"/><clipPath id="clip-path-7"><path d="M115,58.27l-.26.68h5l-.28-.68Zm.53-1.36-.26.68h4l-.29-.68Zm.54-1.36-.27.68h2.87l-.27-.68Zm-3.2,5.28h.73l3.35-8.51-.36-1Zm-1.47,0h.74l4.09-10.4-.36-.93Zm-1.46,0h.72l4.85-12.26-.39-.87Zm4.72-15.67-6.19,15.67h.74L115,46.08l5.83,14.75h.73l-6.19-15.67Zm1.47,0,6.18,15.67H123l-6.19-15.67Zm1.47,0,6.19,15.67h.73l-6.2-15.67Zm1.46,0,6.19,15.67h.73l-6.19-15.67Z" fill="none"/></clipPath><linearGradient id="linear-gradient-5" x1="-331.33" y1="348.19" x2="-331.14" y2="348.19" gradientTransform="matrix(91.71, 0, 0, -91.71, 30495.02, 31986.04)" xlink:href="#linear-gradient"/></defs><g clip-path="url(#clip-path)"><g clip-path="url(#clip-path-2)"><rect x="2.58" y="1.75" width="99.45" height="94.83" fill="url(#radial-gradient)"/></g><polygon points="52.61 74.36 52.42 74.36 52.42 68.46 30.83 83.96 39.25 58.7 17.6 42.83 44.3 42.83 52.54 17.45 60.78 42.95 95.1 42.95 101.44 38.36 64.16 38.24 52.61 2.37 40.79 38.48 3.17 38.37 33.66 60.33 22.09 96.09 52.5 74.2 52.61 74.36 52.42 74.36 52.61 74.36 52.72 74.51 21.37 97.08 33.22 60.48 1.98 37.98 40.52 38.1 52.61 1.13 64.44 37.86 102.61 37.98 95.23 43.33 60.5 43.33 52.54 18.69 44.58 43.21 18.77 43.21 39.7 58.56 31.56 82.96 52.8 67.72 52.8 74.45 52.72 74.51 52.61 74.36" fill="url(#radial-gradient-2)"/><g clip-path="url(#clip-path-3)"><rect x="42.73" y="45.16" width="12.01" height="15.66" fill="url(#linear-gradient)"/></g><g clip-path="url(#clip-path-4)"><rect x="55.85" y="45.16" width="17.52" height="15.66" fill="url(#linear-gradient-2)"/></g><g clip-path="url(#clip-path-5)"><rect x="73.21" y="44.48" width="16.27" height="17.02" fill="url(#linear-gradient-3)"/></g><g clip-path="url(#clip-path-6)"><rect x="91.15" y="45.16" width="16.04" height="15.66" fill="url(#linear-gradient-4)"/></g><g clip-path="url(#clip-path-7)"><rect x="108.42" y="45.16" width="17.52" height="15.66" fill="url(#linear-gradient-5)"/></g><text transform="translate(42.35 66.23)" font-size="4.15" fill="#fff" font-family="Montserrat-ExtraBold, Montserrat" font-weight="800"><tspan letter-spacing="0.02em">EA</tspan><tspan x="6.18" y="0" letter-spacing="0.01em">S</tspan><tspan x="8.89" y="0" letter-spacing="0.02em">T AFRI</tspan><tspan x="23.52" y="0" letter-spacing="0.01em">C</tspan><tspan x="26.6" y="0" letter-spacing="0.02em">A GOS</tspan><tspan x="40.79" y="0" letter-spacing="0.01em">P</tspan><tspan x="43.87" y="0" letter-spacing="0.02em">EL MUSIC </tspan><tspan x="66.56" y="0" letter-spacing="-0.02em">AW</tspan><tspan x="74.56" y="0" letter-spacing="0.02em">ARD</tspan><tspan x="84.51" y="0">S</tspan></text></g></svg>